<?xml version="1.0" encoding="UTF-8"?>
<svg xmlns="http://www.w3.org/2000/svg" width="114" height="17" viewBox="0 0 114 17" fill="none">
  <path d="M110.645 0C108.788 0 107.289 1.46386 107.289 3.27249C107.289 5.08112 108.79 6.54498 110.645 6.54498C112.501 6.54498 113.999 5.08112 113.999 3.27249C114.002 1.46193 112.501 0 110.645 0ZM110.645 6.00566C109.104 6.00566 107.861 4.7922 107.861 3.29175C107.861 1.7913 109.106 0.577838 110.645 0.577838C112.183 0.577838 113.427 1.7913 113.427 3.29175C113.429 4.77487 112.184 5.9864 110.645 6.00566Z" fill="white"></path>
  <path d="M108.934 3.92732H109.892C109.962 4.36454 110.282 4.55909 110.746 4.55909C111.202 4.55909 111.461 4.38766 111.461 4.12185C111.461 3.75782 110.967 3.72123 110.435 3.61722C109.733 3.48431 109.049 3.29748 109.049 2.46731C109.049 1.64294 109.75 1.25 110.638 1.25C111.665 1.25 112.236 1.74693 112.314 2.51162H111.374C111.33 2.10328 111.063 1.95498 110.623 1.95498C110.22 1.95498 109.953 2.10328 109.953 2.37872C109.953 2.70617 110.47 2.73505 111.026 2.84676C111.68 2.97967 112.403 3.1588 112.403 4.04867C112.403 4.81335 111.733 5.27369 110.759 5.27369C109.626 5.27176 108.994 4.7363 108.934 3.92732Z" fill="white"></path>
  <path d="M0 11.5917H3.32373C3.55676 13.5544 4.70417 14.3307 7.0918 14.3307C8.82378 14.3307 10.3444 13.7374 10.3444 12.2312C10.3444 10.6325 8.75268 10.3147 6.20311 9.74262C3.20721 9.08004 0.470022 8.30381 0.470022 4.90419C0.470022 1.68563 3.16179 0.0195312 6.88247 0.0195312C10.6505 0.0195312 13.0836 1.82239 13.3423 5.11029H10.0897C9.90206 3.4673 8.59272 2.64484 6.86074 2.64484C5.03595 2.64484 3.84115 3.39796 3.84115 4.56134C3.84115 5.88459 5.01028 6.27367 7.49271 6.79757C10.9329 7.52758 13.7412 8.32692 13.7412 11.8421C13.7412 15.1512 11.004 17.0003 7.23597 17.0003C2.69176 17.0003 0.116518 15.0375 0 11.5917Z" fill="white"></path>
  <path d="M14.041 4.92733H15.7019V1.27539H18.8144V4.92733H20.8741V6.98057H18.8144V13.1885C18.8144 14.0553 19.3061 14.3519 20.0072 14.3519C20.4041 14.3519 20.9433 14.3288 20.9433 14.3288V16.6112C20.9433 16.6112 20.2186 16.6574 18.9545 16.6574C17.4103 16.6574 15.7019 16.0642 15.7019 13.8492V6.97864H14.041V4.92733Z" fill="white"></path>
  <path d="M29.6273 16.6366V15.2671H29.5566C28.7367 16.34 27.8008 16.9563 26.1162 16.9563C23.4481 16.9563 21.9512 15.2903 21.9512 12.7343V4.9277H25.1109V12.2085C25.1109 13.578 25.743 14.331 27.0996 14.331C28.5966 14.331 29.5108 13.2351 29.5108 11.6826V4.92578H32.6944V16.6347L29.6273 16.6366Z" fill="white"></path>
  <path d="M33.6992 10.7926C33.6992 7.14071 35.8283 4.60785 38.8242 4.60785C40.5086 4.60785 41.5612 5.36096 42.217 6.34328H42.288V0.318359H45.4717V16.6384H42.4066V15.1091H42.3591C41.6582 16.2282 40.4633 16.9813 38.7785 16.9813C35.7589 16.9794 33.6992 14.5813 33.6992 10.7926ZM42.3572 10.862C42.3572 8.62574 41.6086 7.11951 39.5724 7.11951C37.8169 7.11951 36.9282 8.62574 36.9282 10.7946C36.9282 13.0539 37.8407 14.3772 39.4798 14.3772C41.3757 14.3772 42.3572 13.0077 42.3572 10.862Z" fill="white"></path>
  <path d="M46.9453 0.316406H50.1292V3.10159H46.9453V0.316406ZM46.9453 4.92756H50.1292V16.6365H46.9453V4.92756Z" fill="white"></path>
  <path d="M51.1328 10.7923C51.1328 7.30018 53.6844 4.60742 57.4053 4.60742C61.1255 4.60742 63.6773 7.30018 63.6773 10.7923C63.6773 14.2843 61.1255 16.979 57.4053 16.979C53.6844 16.979 51.1328 14.2843 51.1328 10.7923ZM60.446 10.7923C60.446 8.50977 59.3464 6.95732 57.4053 6.95732C55.4403 6.95732 54.3639 8.50977 54.3639 10.7923C54.3639 13.0747 55.4403 14.604 57.4053 14.604C59.3464 14.604 60.446 13.0747 60.446 10.7923Z" fill="white"></path>
  <path d="M67.6562 11.5917H70.9796C71.215 13.5544 72.3609 14.3307 74.7482 14.3307C76.4807 14.3307 78.0008 13.7374 78.0008 12.2312C78.0008 10.6325 76.4093 10.3147 73.8596 9.74262C70.8633 9.08004 68.1262 8.30381 68.1262 4.90419C68.1262 1.68563 70.8183 0.0195312 74.5391 0.0195312C78.3069 0.0195312 80.74 1.82239 80.999 5.11029H77.742C77.5548 3.4673 76.2453 2.64484 74.513 2.64484C72.6881 2.64484 71.4937 3.39796 71.4937 4.56134C71.4937 5.88459 72.6628 6.27367 75.1457 6.79757C78.5853 7.52758 81.394 8.32692 81.394 11.8421C81.394 15.1512 78.6571 17.0003 74.8882 17.0003C70.3481 17.0003 67.7729 15.0375 67.6562 11.5917Z" fill="white"></path>
  <path d="M82.5625 0.316406H85.7466V3.10159H82.5625V0.316406ZM82.5625 4.92756H85.7466V16.6365H82.5625V4.92756Z" fill="white"></path>
  <path d="M86.9412 14.2617L93.1174 7.43746V7.36809H87.644V4.92578H96.8165V7.41432L90.7789 14.0787V14.1481H97.1208V16.6366H86.9395V14.2617H86.9412Z" fill="white"></path>
  <path d="M97.2109 10.7691C97.2109 7.30018 99.6229 4.60742 103.132 4.60742C106.992 4.60742 109.053 7.48313 109.053 11.6609H100.347C100.582 13.4638 101.611 14.5829 103.413 14.5829C104.653 14.5829 105.378 14.0358 105.729 13.144H108.865C108.42 15.2204 106.525 16.979 103.436 16.979C99.4589 16.979 97.2109 14.2612 97.2109 10.7691ZM100.395 9.51522H105.731C105.637 8.03208 104.631 7.00353 103.18 7.00353C101.495 7.00353 100.675 7.9859 100.395 9.51522Z" fill="white"></path>
</svg>
